<?xml version="1.0" encoding="UTF-8" standalone="no"?>
<!-- Created with Inkscape (http://www.inkscape.org/) -->

<svg
   xmlns:dc="http://purl.org/dc/elements/1.1/"
   xmlns:cc="http://creativecommons.org/ns#"
   xmlns:rdf="http://www.w3.org/1999/02/22-rdf-syntax-ns#"
   xmlns:svg="http://www.w3.org/2000/svg"
   xmlns="http://www.w3.org/2000/svg"
   xmlns:sodipodi="http://sodipodi.sourceforge.net/DTD/sodipodi-0.dtd"
   xmlns:inkscape="http://www.inkscape.org/namespaces/inkscape"
   width="490"
   height="680"
   id="svg6067"
   version="1.1"
   inkscape:version="0.48.5 r10040"
   sodipodi:docname="Philippine Crop Insurance Corporation (PCIC).svg">
  <title
     id="title8337">Philippine Crop Insurance Corporation (PCIC)</title>
  <defs
     id="defs6069" />
  <sodipodi:namedview
     id="base"
     pagecolor="#ffffff"
     bordercolor="#666666"
     borderopacity="1.0"
     inkscape:pageopacity="0.0"
     inkscape:pageshadow="2"
     inkscape:zoom="0.26516504"
     inkscape:cx="287.35732"
     inkscape:cy="621.41174"
     inkscape:document-units="px"
     inkscape:current-layer="layer1"
     showgrid="false"
     inkscape:snap-bbox="true"
     inkscape:bbox-paths="true"
     inkscape:bbox-nodes="true"
     inkscape:snap-bbox-edge-midpoints="true"
     inkscape:snap-bbox-midpoints="true"
     inkscape:object-paths="true"
     inkscape:snap-intersection-paths="true"
     inkscape:object-nodes="true"
     inkscape:snap-smooth-nodes="true"
     inkscape:snap-global="false"
     fit-margin-top="0"
     fit-margin-left="0"
     fit-margin-right="0"
     fit-margin-bottom="0"
     inkscape:window-width="1366"
     inkscape:window-height="705"
     inkscape:window-x="-8"
     inkscape:window-y="-8"
     inkscape:window-maximized="1"
     inkscape:snap-object-midpoints="true"
     inkscape:snap-center="true"
     inkscape:snap-midpoints="true"
     inkscape:snap-nodes="true" />
  <metadata
     id="metadata6072">
    <rdf:RDF>
      <cc:Work
         rdf:about="">
        <dc:format>image/svg+xml</dc:format>
        <dc:type
           rdf:resource="http://purl.org/dc/dcmitype/StillImage" />
        <cc:license
           rdf:resource="" />
        <dc:title>Philippine Crop Insurance Corporation (PCIC)</dc:title>
      </cc:Work>
    </rdf:RDF>
  </metadata>
  <g
     inkscape:label="Layer 1"
     inkscape:groupmode="layer"
     id="layer1"
     transform="translate(-832.9361,-42.36218)">
    <path
       style="fill:#ffffff;stroke:none;stroke-width:1px;stroke-linecap:butt;stroke-linejoin:miter;stroke-opacity:1;fill-opacity:1"
       d="m 257.10654,80.626223 -24.21311,0 L 52.507235,249.41421 29.22708,417.89909 l 19.364286,145.18453 176.504224,42.82636 39.80879,0 185.10199,-59.97552 -12.51365,-296.52025 z"
       id="path3002"
       inkscape:connector-curvature="0"
       transform="translate(832.9361,42.36218)"
       sodipodi:nodetypes="cccccccccc" />
    <g
       id="g8339"
       transform="matrix(0.93251072,0,0,0.93333334,56.214257,48.157475)">
      <path
         sodipodi:nodetypes="csccscscacsccc"
         inkscape:connector-curvature="0"
         id="path6086"
         d="m 907.30983,-6.2092449 c 0,0 -77.33793,207.5674049 -74.28571,389.9999949 2.83503,169.45082 70,338.57143 70,338.57143 l 49.28571,-0.71428 c -4.55768,-25.78067 -3.97802,-44.81654 3.37182,-65.35504 6.23047,-17.41054 14.44518,-9.90776 118.64105,-13.31284 0,0 1.2108,-5.05023 -0.5843,-5.61784 C 809.45248,553.7958 917.6866,454.38756 889.24348,261.02026 c 0,0 32.8413,-2.30484 48.06635,2.7705 18.64017,6.21378 49.1124,32.59716 49.1124,32.59716 0,0 -9.94843,-68.19567 20.88757,-122.59717 23.7556,-41.91007 75.3751,-93.614756 75.3751,-93.614756 -143.26355,-1.59051 -134.38161,16.16264 -129.66078,-86.3852389 z"
         style="fill:#006c35;fill-opacity:1;stroke:none" />
      <path
         sodipodi:nodetypes="csccscscacsccc"
         inkscape:connector-curvature="0"
         id="path6086-5"
         d="m 1284.0255,-6.2092439 c 0,0 77.3379,207.5674039 74.2857,389.9999939 -2.835,169.45082 -70,338.57143 -70,338.57143 l -49.2857,-0.71428 c 4.5577,-25.78067 3.978,-44.81654 -3.3718,-65.35504 -6.2305,-17.41054 -14.4452,-9.90776 -118.6411,-13.31284 0,0 -1.2108,-5.05023 0.5843,-5.61784 264.2859,-83.56638 156.0518,-182.97462 184.4949,-376.34192 0,0 -32.8413,-2.30484 -48.0663,2.7705 -18.6402,6.21378 -49.1124,32.59716 -49.1124,32.59716 0,0 9.9484,-68.19567 -20.8876,-122.59717 -23.7556,-41.91007 -75.3751,-93.614756 -75.3751,-93.614756 143.2636,-1.59051 134.3816,16.16264 129.6608,-86.3852379 z"
         style="fill:#006c35;fill-opacity:1;stroke:none" />
      <path
         sodipodi:nodetypes="csccc"
         inkscape:connector-curvature="0"
         id="path8297"
         d="m 1068.5714,605.36218 c 0,0 4.7667,-163.16518 -1.4285,-210 -4.249,-32.12196 -78.47461,-69.17686 -134.28576,-85.71429 0,0 -10.60315,160.35244 4.28571,200 25.45541,42.77402 87.07635,73.77477 131.42855,95.71429 z"
         style="fill:none;stroke:#638c08;stroke-width:20;stroke-linecap:butt;stroke-linejoin:miter;stroke-miterlimit:4;stroke-opacity:1;stroke-dasharray:none" />
      <path
         sodipodi:nodetypes="csccc"
         inkscape:connector-curvature="0"
         id="path8297-7"
         d="m 1126.3401,605.36218 c 0,0 -4.7667,-163.16518 1.4285,-210 4.249,-32.12196 78.4747,-69.17686 134.2858,-85.71429 0,0 10.6032,160.35244 -4.2857,200 -25.4554,42.77402 -87.0763,73.77477 -131.4286,95.71429 z"
         style="fill:none;stroke:#638c08;stroke-width:20;stroke-linecap:butt;stroke-linejoin:miter;stroke-miterlimit:4;stroke-opacity:1;stroke-dasharray:none" />
      <path
         sodipodi:nodetypes="cacsc"
         inkscape:connector-curvature="0"
         id="path8335"
         d="m 1067.1429,395.36218 c 0,0 -47.4973,-93.90691 -40.8279,-143.04082 6.2606,-46.12207 72.731,-119.19799 72.731,-119.19799 0,0 62.7276,68.72048 68.6903,114.14723 6.5584,49.96377 -38.9575,146.07127 -38.9575,146.07127"
         style="fill:none;stroke:#638c08;stroke-width:20;stroke-linecap:butt;stroke-linejoin:miter;stroke-miterlimit:4;stroke-opacity:1;stroke-dasharray:none" />
    </g>
  </g>
</svg>
